<?xml version="1.0" encoding="iso-8859-1"?>
<!-- Generator: Adobe Illustrator 19.0.0, SVG Export Plug-In . SVG Version: 6.00 Build 0)  -->
<svg version="1.1" id="Layer_1" xmlns="http://www.w3.org/2000/svg" xmlns:xlink="http://www.w3.org/1999/xlink" x="0px" y="0px"
	 viewBox="0 0 480.002 480.002" style="enable-background:new 0 0 480.002 480.002;" xml:space="preserve">
<path style="fill:#12ADDD;" d="M128,224.001c8.84,0,16,7.16,16,16v16h24c8.84,0,16-7.16,16-16v-32c0-8.84-7.16-16-16-16H88
	c-8.84,0-16,7.16-16,16v32c0,8.84,7.16,16,16,16h24v-16C112,231.161,119.16,224.001,128,224.001z"/>
<g>
	<path style="fill:#71CBEA;" d="M256,40.001c0-17.672-14.328-32-32-32H40c-17.672,0-32,14.328-32,32v16h248V40.001z"/>
	<path style="fill:#71CBEA;" d="M40,408.001h64v-32l8-24v-8H8v32C8,393.673,22.328,408.001,40,408.001z"/>
</g>
<path style="fill:#D84444;" d="M249.024,101.321c-4.24,3.264-8.064,7.048-11.368,11.256c-0.16,0.208-0.312,0.424-0.472,0.632
	c-1.408,1.84-2.704,3.752-3.912,5.736c-0.224,0.376-0.464,0.744-0.68,1.12c-2.56,4.416-4.592,9.168-6.04,14.168
	c-0.184,0.64-0.328,1.288-0.496,1.928c-0.48,1.896-0.88,3.816-1.184,5.768c-0.12,0.728-0.24,1.456-0.336,2.192
	c-0.32,2.592-0.536,5.208-0.536,7.88s0.216,5.288,0.536,7.872c0.088,0.736,0.216,1.464,0.336,2.192
	c0.312,1.952,0.704,3.88,1.184,5.768c0.168,0.64,0.312,1.296,0.496,1.928c1.448,5,3.48,9.752,6.04,14.168
	c0.216,0.376,0.456,0.744,0.68,1.12c1.2,1.984,2.504,3.904,3.912,5.736c0.16,0.208,0.312,0.424,0.472,0.632
	c3.304,4.208,7.128,7.992,11.368,11.256c0.096,0.072,0.192,0.144,0.288,0.216c2.128,1.624,4.352,3.12,6.68,4.464
	c9.424,5.472,20.336,8.648,32.008,8.648c35.344,0,64-28.656,64-64s-28.656-64-64-64c-11.672,0-22.584,3.176-32,8.632
	c-2.328,1.352-4.552,2.848-6.68,4.464C249.216,101.177,249.12,101.241,249.024,101.321z"/>
<path style="fill:#EDEDED;" d="M112,352.001l-8,24v32v8l32,32v32h112v-24l24-72v-48l-8-16h-8V207.369l0,0
	c-2.328-1.352-4.552-2.848-6.68-4.464c-0.096-0.072-0.192-0.144-0.288-0.216c-4.24-3.264-8.064-7.048-11.368-11.256
	c-0.16-0.208-0.312-0.424-0.472-0.632c-1.408-1.84-2.704-3.752-3.912-5.736c-0.224-0.376-0.464-0.744-0.68-1.12
	c-2.56-4.416-4.592-9.168-6.04-14.168c-0.184-0.632-0.328-1.288-0.496-1.928c-0.48-1.896-0.88-3.816-1.184-5.768
	c-0.112-0.728-0.248-1.456-0.336-2.192c-0.328-2.6-0.544-5.216-0.544-7.888s0.216-5.288,0.536-7.872
	c0.088-0.736,0.216-1.464,0.336-2.192c0.312-1.952,0.704-3.88,1.184-5.768c0.168-0.648,0.312-1.288,0.496-1.928
	c1.448-5,3.48-9.752,6.04-14.168c0.224-0.376,0.456-0.744,0.68-1.12c1.2-1.984,2.504-3.904,3.912-5.736
	c0.16-0.208,0.312-0.424,0.472-0.632c3.304-4.208,7.128-7.992,11.368-11.256c0.096-0.072,0.192-0.144,0.288-0.216
	c2.128-1.624,4.352-3.12,6.68-4.464l0,0V56.001H8v288h104V352.001z M224,304.001c8.84,0,16,7.16,16,16L224,304.001l-12.68,6.336
	C214.248,306.513,218.808,304.001,224,304.001z M208,312.001l-16-16l-12.68,6.336c2.928-3.824,7.488-6.336,12.68-6.336
	C200.84,296.001,208,303.161,208,312.001z M88,256.001c-8.84,0-16-7.16-16-16v-32c0-8.84,7.16-16,16-16h80c8.84,0,16,7.16,16,16v32
	c0,8.84-7.16,16-16,16h-24v-16c0-8.84-7.16-16-16-16s-16,7.16-16,16v16H88z"/>
<g>
	<path style="fill:#2D2D2D;" d="M295.496,170.809c-1.144,3.024-4.072,5.192-7.496,5.192c-4.408,0-8-3.592-8-8h-16
		c0,13.232,10.768,24,24,24s24-10.768,24-24c0-2.12-0.84-4.16-2.344-5.656l-29.152-29.152c1.144-3.024,4.072-5.192,7.496-5.192
		c4.408,0,8,3.592,8,8h16c0-13.232-10.768-24-24-24s-24,10.768-24,24c0,2.12,0.84,4.16,2.344,5.656L295.496,170.809z"/>
	<path style="fill:#2D2D2D;" d="M40,416.001h56c0,2.12,0.84,4.16,2.344,5.656L128,451.313v28.688h16v-32
		c0-2.12-0.84-4.16-2.344-5.656L112,412.689v-35.392l7.592-22.768c0.272-0.816,0.408-1.672,0.408-2.528v-112c0-4.408,3.592-8,8-8
		s8,3.592,8,8v72v40v8h16v-8v-40c0-4.408,3.592-8,8-8s8,3.592,8,8v24v24h16v-24v-24c0-4.408,3.592-8,8-8s8,3.592,8,8v8v32v8h16v-8
		v-32c0-4.408,3.592-8,8-8s8,3.592,8,8v16v24h16v-24c0-4.408,3.592-8,8-8s8,3.592,8,8v46.704l-23.592,70.768
		c-0.272,0.816-0.408,1.672-0.408,2.528v24h16v-22.704l23.592-70.768c0.272-0.816,0.408-1.672,0.408-2.528v-48
		c0-10.416-6.712-19.216-16-22.528v-93.672c7.52,2.672,15.576,4.2,24,4.2c39.696,0,72-32.304,72-72s-32.304-72-72-72
		c-8.424,0-16.48,1.528-24,4.2v-44.2c0-22.056-17.944-40-40-40H40c-22.056,0-40,17.944-40,40v336
		C0,398.057,17.944,416.001,40,416.001z M40,400.001c-13.232,0-24-10.768-24-24v-24h87.568l-7.16,21.472
		c-0.272,0.816-0.408,1.672-0.408,2.528v24H40z M128,216.001c-13.232,0-24,10.768-24,24v8H88c-4.408,0-8-3.592-8-8v-32
		c0-4.408,3.592-8,8-8h80c4.408,0,8,3.592,8,8v32c0,4.408-3.592,8-8,8h-16v-8C152,226.769,141.232,216.001,128,216.001z
		 M344,152.001c0,30.88-25.12,56-56,56c-10.296,0-19.92-2.84-28.224-7.712c-1.96-1.144-3.824-2.408-5.608-3.768
		c-0.168-0.128-0.344-0.248-0.504-0.376c-3.76-2.936-7.112-6.312-9.976-10.032c-0.096-0.128-0.184-0.248-0.28-0.376
		c-1.4-1.848-2.696-3.776-3.856-5.776c-0.008-0.016-0.024-0.032-0.032-0.048c-2.344-4.056-4.152-8.408-5.424-12.936
		c-0.096-0.36-0.184-0.72-0.28-1.08c-0.472-1.816-0.832-3.672-1.12-5.536c-0.08-0.512-0.176-1.024-0.232-1.536
		c-0.288-2.256-0.464-4.528-0.464-6.824c0-2.296,0.176-4.568,0.456-6.816c0.064-0.52,0.16-1.024,0.232-1.536
		c0.288-1.872,0.648-3.72,1.12-5.536c0.096-0.36,0.176-0.72,0.28-1.08c1.272-4.528,3.08-8.88,5.424-12.936
		c0.008-0.016,0.024-0.032,0.032-0.048c1.16-2,2.456-3.928,3.856-5.776c0.096-0.128,0.184-0.248,0.28-0.376
		c2.872-3.728,6.216-7.104,9.976-10.032c0.168-0.128,0.336-0.248,0.504-0.376c1.784-1.36,3.648-2.616,5.608-3.768
		c8.312-4.88,17.936-7.72,28.232-7.72C318.88,96.001,344,121.121,344,152.001z M241.208,97.393c-0.296,0.256-0.568,0.52-0.856,0.784
		c-1.808,1.608-3.536,3.296-5.176,5.072c-0.328,0.36-0.656,0.712-0.984,1.08c-1.744,1.968-3.392,4.016-4.92,6.168
		c-0.048,0.072-0.104,0.136-0.16,0.208c-3.272,4.648-5.984,9.688-8.088,15.048c-0.12,0.296-0.216,0.6-0.328,0.896
		c-0.848,2.24-1.576,4.52-2.2,6.856c-0.152,0.576-0.304,1.152-0.448,1.736c-0.512,2.12-0.912,4.272-1.224,6.464
		c-0.096,0.656-0.224,1.296-0.296,1.952c-0.32,2.744-0.528,5.52-0.528,8.344s0.208,5.6,0.528,8.344
		c0.08,0.656,0.2,1.296,0.296,1.952c0.312,2.184,0.72,4.344,1.224,6.464c0.144,0.584,0.288,1.152,0.448,1.736
		c0.624,2.336,1.352,4.624,2.2,6.856c0.112,0.296,0.216,0.6,0.328,0.896c2.112,5.36,4.824,10.4,8.088,15.048
		c0.048,0.072,0.104,0.136,0.16,0.208c1.528,2.152,3.176,4.2,4.92,6.168c0.32,0.368,0.648,0.72,0.984,1.08
		c1.64,1.776,3.36,3.472,5.176,5.072c0.288,0.256,0.568,0.528,0.856,0.784c2.168,1.856,4.416,3.616,6.792,5.216v101.544
		c-0.272,0.096-0.512,0.24-0.776,0.344c-0.048,0.016-0.104,0.024-0.152,0.048c-2.76-10.2-12.008-17.76-23.072-17.76
		c-4.296,0-8.272,1.224-11.768,3.208c-4.256-6.712-11.712-11.208-20.232-11.208c-6.168,0-11.744,2.408-16,6.24
		c-4.256-3.84-9.832-6.24-16-6.24c-2.816,0-5.488,0.576-8,1.472v-25.472h16c13.232,0,24-10.768,24-24v-32c0-13.232-10.768-24-24-24
		H88c-13.232,0-24,10.768-24,24v32c0,13.232,10.768,24,24,24h16v72H16v-272h232v28.176
		C245.624,93.769,243.376,95.529,241.208,97.393z M40,16.001h184c13.232,0,24,10.768,24,24v8H16v-8
		C16,26.769,26.768,16.001,40,16.001z"/>
	<path style="fill:#2D2D2D;" d="M445.656,106.345l-11.312,11.312l18.344,18.344H376v16h76.688l-18.344,18.344l11.312,11.312l32-32
		c3.128-3.128,3.128-8.184,0-11.312L445.656,106.345z"/>
	<path style="fill:#2D2D2D;" d="M99.2,129.601l9.6,12.8c3.184-2.384,9.92-6.4,19.2-6.4c3.984,0,11.776,0.832,19.2,6.4l9.6-12.8
		c-11.136-8.352-22.824-9.6-28.8-9.6C114.08,120.001,103.984,126.017,99.2,129.601z"/>
	<path style="fill:#2D2D2D;" d="M75.2,105.601l9.6,12.8c7.168-5.376,22.312-14.4,43.2-14.4c8.96,0,26.496,1.872,43.2,14.4
		l9.6-12.808c-20.424-15.304-41.848-17.592-52.8-17.592C102.472,88.001,83.96,99.025,75.2,105.601z"/>
	<rect x="120" y="152.001" style="fill:#2D2D2D;" width="16" height="16"/>
</g>
<g>
</g>
<g>
</g>
<g>
</g>
<g>
</g>
<g>
</g>
<g>
</g>
<g>
</g>
<g>
</g>
<g>
</g>
<g>
</g>
<g>
</g>
<g>
</g>
<g>
</g>
<g>
</g>
<g>
</g>
</svg>
