<?xml version="1.0" encoding="iso-8859-1"?>
<!-- Generator: Adobe Illustrator 19.0.0, SVG Export Plug-In . SVG Version: 6.00 Build 0)  -->
<svg version="1.1" id="Capa_1" xmlns="http://www.w3.org/2000/svg" xmlns:xlink="http://www.w3.org/1999/xlink" x="0px" y="0px"
	 viewBox="0 0 512 512" style="enable-background:new 0 0 512 512;" xml:space="preserve">
<path style="fill:#FFB64C;" d="M179.146,332.854c-76.045-76.045-76.045-199.776,0-275.821s199.777-76.045,275.821,0
	s76.045,199.776,0,275.821S255.19,408.898,179.146,332.854z"/>
<path style="fill:#FF9800;" d="M454.967,57.033L179.146,332.854c76.045,76.045,199.777,76.045,275.821,0
	S531.01,133.077,454.967,57.033z"/>
<path style="fill:#FF8700;" d="M225.116,286.884c-50.696-50.696-50.696-133.185,0-183.881s133.185-50.696,183.881,0
	s50.696,133.185,0,183.881S275.812,337.58,225.116,286.884z M387.78,124.22c-38.997-38.997-102.449-38.997-141.446,0
	s-38.997,102.449,0,141.446s102.449,38.997,141.446,0S426.777,163.217,387.78,124.22z"/>
<path style="fill:#E47500;" d="M408.997,103.004L387.78,124.22c38.997,38.997,38.997,102.449,0,141.446s-102.449,38.997-141.446,0
	l-21.217,21.217c50.696,50.696,133.185,50.696,183.881,0S459.693,153.7,408.997,103.004z"/>
<path style="fill:#8B8992;" d="M296.053,512H0V51.918h296.053V512z"/>
<path style="fill:#78777F;" d="M296.053,512H148.026V51.918h148.026V512z"/>
<rect x="116.021" y="99.928" style="fill:#57555C;" width="64.011" height="30.005"/>
<g>
	
		<rect x="316.192" y="137.581" transform="matrix(-0.7071 -0.7071 0.7071 -0.7071 515.5433 518.7111)" style="fill:#E47500;" width="98.016" height="30.005"/>
	
		<rect x="290.845" y="172.937" transform="matrix(-0.7071 -0.7071 0.7071 -0.7071 430.1994 554.073)" style="fill:#E47500;" width="78.013" height="30.005"/>
	
		<rect x="275.483" y="208.31" transform="matrix(-0.7071 -0.7071 0.7071 -0.7071 344.8142 589.452)" style="fill:#E47500;" width="38.006" height="30.005"/>
</g>
<path style="fill:#49BBEE;" d="M296.053,418.984H0V144.935h296.053V418.984z"/>
<path style="fill:#009AE5;" d="M296.053,418.984H148.026V144.935h148.026V418.984z"/>
<g>
	<path style="fill:#0070B4;" d="M73.114,284.46v34.906H53.611v-71.013h15.203l28.505,36.106v-36.106h19.503v71.013h-15.503
		L73.114,284.46z"/>
	<path style="fill:#0070B4;" d="M128.68,319.366v-71.013h48.709v17.003h-29.205v11.802h23.805v15.803h-23.805v26.405L128.68,319.366
		L128.68,319.366z"/>
</g>
<g>
	<path style="fill:#005C95;" d="M179.932,283.26c0-4.333,0.766-8.602,2.3-12.802c1.533-4.201,3.784-7.967,6.751-11.302
		c2.967-3.333,6.566-6.034,10.802-8.101c4.234-2.066,9.052-3.101,14.453-3.101c6.334,0,11.867,1.417,16.603,4.251
		c4.734,2.836,8.234,6.585,10.502,11.252l-14.902,10.602c-0.601-1.733-1.385-3.167-2.351-4.301c-0.967-1.133-2.017-2.033-3.15-2.701
		c-1.135-0.666-2.335-1.133-3.602-1.4c-1.267-0.266-2.434-0.4-3.501-0.4c-2.467,0-4.585,0.55-6.351,1.65
		c-1.768,1.1-3.235,2.535-4.401,4.301c-1.167,1.767-2.017,3.768-2.55,6.001c-0.534,2.234-0.8,4.451-0.8,6.651
		c0,2.467,0.315,4.836,0.95,7.101c0.633,2.267,1.565,4.268,2.801,6.001c1.232,1.734,2.732,3.118,4.501,4.151
		c1.766,1.034,3.784,1.55,6.051,1.55c1.133,0,2.3-0.15,3.501-0.45c1.2-0.3,2.351-0.8,3.451-1.5c1.1-0.7,2.1-1.6,3.001-2.701
		c0.9-1.1,1.615-2.45,2.15-4.051l15.902,9.502c-1,2.6-2.517,4.935-4.551,7.001c-2.034,2.067-4.351,3.801-6.951,5.201
		c-2.6,1.4-5.368,2.467-8.301,3.201c-2.936,0.733-5.801,1.1-8.602,1.1c-4.936,0-9.47-1.05-13.603-3.151
		c-4.135-2.1-7.686-4.884-10.651-8.352c-2.969-3.467-5.286-7.401-6.951-11.802C180.765,292.261,179.932,287.794,179.932,283.26z"/>
	<polygon style="fill:#005C95;" points="177.388,265.356 177.388,248.353 148.026,248.353 148.026,319.366 148.182,319.366 
		148.182,292.961 171.988,292.961 171.988,277.158 148.182,277.158 148.182,265.356 	"/>
</g>
<rect x="148.026" y="99.928" style="fill:#3C3B40;" width="32.006" height="30.005"/>
<g>
</g>
<g>
</g>
<g>
</g>
<g>
</g>
<g>
</g>
<g>
</g>
<g>
</g>
<g>
</g>
<g>
</g>
<g>
</g>
<g>
</g>
<g>
</g>
<g>
</g>
<g>
</g>
<g>
</g>
</svg>
